<svg width="32" height="32" viewBox="0 0 32 32" fill="none" xmlns="http://www.w3.org/2000/svg">
<path d="M0.75 12.2887C0.75 9.55758 2.87076 7.34355 5.48685 7.34355H19.6974C22.3134 7.34355 24.4342 9.55758 24.4342 12.2887V22.179C24.4342 24.9102 22.3134 27.1241 19.6974 27.1241H15.34C15.1001 27.1241 14.8734 27.238 14.7235 27.4335L12.4191 30.4407C12.1031 30.8531 11.5022 30.8531 11.1862 30.4407L8.88178 27.4335C8.73196 27.238 8.50514 27.1241 8.26531 27.1241H5.48685C2.87076 27.1241 0.75 24.9102 0.75 22.179V12.2887Z" stroke="#7294f2" stroke-width="1.5"/>
<path d="M7.06583 17.2338H7.08305" stroke="#7294f2" stroke-width="1.5" stroke-linecap="round"/>
<path d="M12.6075 17.2338H12.6248" stroke="#7294f2" stroke-width="1.5" stroke-linecap="round"/>
<path d="M18.1185 17.2338H18.1357" stroke="#7294f2" stroke-width="1.5" stroke-linecap="round"/>
<path d="M7.06583 7.34353V5.69515C7.06583 2.96402 9.18659 0.75 11.8027 0.75H24.4343C27.9224 0.75 30.75 3.70203 30.75 7.34353V17.2338C30.75 19.965 28.6293 22.179 26.0132 22.179H24.4343" stroke="#7294f2" stroke-width="1.5"/>
</svg>
