<svg width="34" height="34" viewBox="0 0 34 34" fill="none" xmlns="http://www.w3.org/2000/svg">
<path d="M24.75 27.5159H18.35L11.23 32.4675C10.174 33.2035 8.75001 32.4174 8.75001 31.0791V27.5159C3.95 27.5159 0.75 24.1701 0.75 19.1516V9.11429C0.75 4.09572 3.95 0.75 8.75001 0.75H24.75C29.55 0.75 32.75 4.09572 32.75 9.11429V19.1516C32.75 24.1701 29.55 27.5159 24.75 27.5159Z" stroke="#7294f2" stroke-width="1.5" stroke-miterlimit="10" stroke-linecap="round" stroke-linejoin="round"/>
<path d="M16.75 16.75V16.3768C16.75 15.1679 17.5091 14.5279 18.2683 14.0123C19.0091 13.5145 19.75 12.8745 19.75 11.7012C19.75 10.0656 18.4127 8.75 16.75 8.75C15.0873 8.75 13.75 10.0656 13.75 11.7012" stroke="#7294f2" stroke-width="1.5" stroke-linecap="round" stroke-linejoin="round"/>
<path d="M16.75 19.75H16.7642" stroke="#7294f2" stroke-width="1.5" stroke-linecap="round" stroke-linejoin="round"/>
</svg>
